<svg width="42" height="50" viewBox="0 0 42 50" fill="none" xmlns="http://www.w3.org/2000/svg">
<path fill-rule="evenodd" clip-rule="evenodd" d="M6.01896 5.96845L6.01895 5.96844C5.97905 5.94632 5.9387 5.92394 5.89446 5.89445H5.9028C5.90553 5.8899 5.90886 5.88504 5.9124 5.87989L5.91241 5.87987C5.91965 5.86932 5.92776 5.85751 5.93335 5.84445C5.94446 5.84029 5.95627 5.83682 5.96807 5.83334L5.96809 5.83334C5.97989 5.82987 5.99169 5.8264 6.0028 5.82223C6.06809 5.86887 6.09079 5.91802 6.11464 5.96967C6.1263 5.99492 6.13824 6.02078 6.15557 6.04723C8.61946 7.59445 9.99724 6.7639 10.9611 4.60557C11.0945 4.29446 11.2222 3.95834 11.3472 3.60001C12.4857 0.256237 15.1641 0.215536 17.7545 0.176172C18.5835 0.163575 19.4035 0.151114 20.1611 0.0305659C21.9889 -0.255545 21.4056 1.44723 20.6139 2.26668C20.3526 2.54064 20.0455 2.7713 19.7274 3.01018C18.9264 3.61175 18.056 4.26549 17.6722 5.79445C18.411 5.79445 19.1182 5.79908 19.8037 5.80356C21.3092 5.8134 22.7102 5.82256 24.1111 5.78057C26.7306 5.70279 27.175 6.65557 25.7306 8.77501C25.4142 9.24218 25.1583 9.75279 24.9029 10.2623L24.9029 10.2623C24.5843 10.898 24.2666 11.532 23.8334 12.0778C22.3195 13.9722 22.3528 15.2667 24.8361 16.15C25.4611 16.3722 26.2667 16.9278 26.425 17.4917C27.1788 20.1628 28.9835 22.1701 30.7829 24.1715C32.7766 26.3889 34.7638 28.5991 35.3084 31.6972C35.3337 31.8398 35.351 31.9718 35.3668 32.0927C35.4535 32.754 35.4967 33.0833 36.5722 32.9917C38.4056 32.8195 40.575 32.7972 41.0861 35.1361C41.5778 37.3667 39.9861 38.7861 38.2834 39.9639C38.0514 40.1224 37.8746 40.3548 37.6772 40.6144L37.6771 40.6145L37.6771 40.6146C37.5908 40.728 37.5005 40.8467 37.4 40.9667C37.5571 41.652 38.151 41.6702 38.707 41.6872C39.262 41.7042 39.7792 41.72 39.7861 42.3972C39.7972 43.525 38.5889 44.05 37.7528 44.3083C33.4889 45.6333 28.9972 46.0833 24.625 45.9945C22.2911 45.9429 20.2482 46.6889 18.2164 47.4308C16.7417 47.9692 15.2728 48.5055 13.7028 48.7333C13.4729 48.7677 13.2471 48.819 13.017 48.8714C12.1849 49.0609 11.2951 49.2634 9.94168 48.7195C11.5466 48.1366 12.6068 46.9549 13.6749 45.7646C15.2687 43.9882 16.8799 42.1925 20.3445 42.3389C19.738 42.0869 19.2508 41.8814 18.8417 41.7087L18.8387 41.7075L18.8385 41.7074L18.8385 41.7074L18.8384 41.7074C18.0408 41.3708 17.5398 41.1594 17.0278 40.9722C14.6972 40.1306 14.3861 38.4945 16.125 36.6C17.1056 35.5361 17.7834 34.3945 15.5611 33.9333C14.3395 33.6816 14.631 33.1589 14.9543 32.5794C15.1874 32.1613 15.4371 31.7136 15.1472 31.3167C14.775 30.8056 15.9972 30.6611 16.7028 30.75C18.7917 31.0195 21.7445 31.3806 20.9334 28.3278C20.8675 28.0811 20.805 27.8031 20.7385 27.5068L20.7384 27.5065L20.7384 27.5064C20.2774 25.454 19.6182 22.5197 16.2445 22.9639C12.5889 23.4445 11.4417 22.5389 13.7278 19.2222C13.2628 19.0142 12.6194 19.2545 12.0027 19.4849C10.8327 19.922 9.75856 20.3233 10.1806 17.5583C10.2056 17.3833 9.86113 16.9639 9.79169 16.9833C9.52593 17.0675 9.25436 17.3309 8.9844 17.5927L8.98439 17.5927C8.39939 18.1601 7.82197 18.7201 7.3278 17.4333C6.97519 16.516 7.57192 16.2735 8.27236 15.9888C8.98451 15.6993 9.80387 15.3662 9.84169 14.2361C9.78655 14.0572 9.37532 14.0532 8.93264 14.0489C8.19329 14.0417 7.36622 14.0336 7.96391 13.2083C9.95347 10.4633 8.43131 9.30962 6.72826 8.0189L6.72821 8.01886L6.72805 8.01873C6.55274 7.88587 6.37552 7.75155 6.20002 7.6139C5.96982 7.43464 6.05364 7.16439 6.14328 6.87539C6.1856 6.73894 6.22921 6.59832 6.24169 6.46112C6.24169 6.45696 6.2403 6.4514 6.23891 6.44585L6.23891 6.44584C6.23752 6.44029 6.23613 6.43473 6.23613 6.43057C6.24446 6.30001 6.23057 6.16668 6.15002 6.04723C6.10403 6.01561 6.06175 5.99217 6.01897 5.96845L6.01896 5.96845ZM1.4778 26.1861C0.916685 26.0945 0.277796 25.5056 0.338907 24.6583C0.46113 23.1028 5.2028 19.9333 7.30835 20.0583C9.24749 20.1651 9.87283 21.4829 10.4606 22.7216C10.6988 23.2236 10.9309 23.7127 11.2417 24.1028C11.15 25.9361 10.0417 26.9722 8.85002 26.9778C6.51002 27.0069 4.15236 26.6223 1.82271 26.2423L1.4778 26.1861ZM8.19169 0.877788C5.56669 1.57779 4.0528 2.97223 4.23891 5.79168C2.48053 5.96463 2.99059 6.67977 3.46069 7.33888C3.5342 7.44194 3.60673 7.54364 3.66946 7.64168C3.80518 7.33292 4.04139 7.04282 4.28509 6.74352L4.28509 6.74352C4.44043 6.55274 4.5988 6.35824 4.73613 6.15279C4.89028 6.1129 5.04485 6.07218 5.19951 6.03144L5.1997 6.03138C5.44352 5.96715 5.68757 5.90285 5.93057 5.84168C6.16736 5.31966 6.57444 4.87828 6.98734 4.43059C7.82901 3.51801 8.69485 2.57922 8.19169 0.877788ZM3.57502 8.42501C3.99724 8.27779 3.88335 7.98334 3.66669 7.64168C3.55835 7.88057 3.49446 8.13057 3.57502 8.42501Z" fill="#0E8784"/>
</svg>